<mxfile host="app.diagrams.net" agent="Mozilla/5.0 (Windows NT 10.0; Win64; x64) AppleWebKit/537.36 (KHTML, like Gecko) Chrome/135.0.0.0 Safari/537.36 Edg/135.0.0.0" version="26.0.4">
  <diagram name="第 1 页" id="cwW233bt7u2Y4tQ82L0e">
    <mxGraphModel dx="1438" dy="281" grid="1" gridSize="10" guides="1" tooltips="1" connect="1" arrows="1" fold="1" page="1" pageScale="1" pageWidth="827" pageHeight="1169" math="0" shadow="0">
      <root>
        <mxCell id="0" />
        <mxCell id="1" parent="0" />
        <mxCell id="CFXyaIXDHv0twLjoeO8D-1" value="&lt;font face=&quot;Helvetica&quot;&gt;ub20-00 虚拟机&lt;/font&gt;&lt;div&gt;&lt;font face=&quot;Helvetica&quot;&gt;vcpus：4&lt;/font&gt;&lt;/div&gt;&lt;div&gt;&lt;font face=&quot;Helvetica&quot;&gt;mem ：16G&lt;br&gt;&lt;/font&gt;&lt;div&gt;&lt;font face=&quot;Helvetica&quot;&gt;os-type：ubuntu20.04&lt;/font&gt;&lt;/div&gt;&lt;/div&gt;&lt;div&gt;&lt;font face=&quot;Helvetica&quot;&gt;disk-path：/dev/ubuntu-vg/ub20-00&lt;/font&gt;&lt;/div&gt;" style="rounded=0;whiteSpace=wrap;html=1;" vertex="1" parent="1">
          <mxGeometry x="184" y="230" width="230" height="100" as="geometry" />
        </mxCell>
        <mxCell id="CFXyaIXDHv0twLjoeO8D-4" value="" style="curved=1;endArrow=classic;html=1;rounded=0;exitX=0.454;exitY=0.998;exitDx=0;exitDy=0;exitPerimeter=0;" edge="1" parent="1" source="CFXyaIXDHv0twLjoeO8D-9">
          <mxGeometry width="50" height="50" relative="1" as="geometry">
            <mxPoint x="120" y="290" as="sourcePoint" />
            <mxPoint x="170" y="240" as="targetPoint" />
            <Array as="points">
              <mxPoint x="170" y="290" />
              <mxPoint x="120" y="240" />
            </Array>
          </mxGeometry>
        </mxCell>
        <mxCell id="CFXyaIXDHv0twLjoeO8D-5" value="&lt;font face=&quot;Helvetica&quot;&gt;宿主机&lt;/font&gt;&lt;div&gt;&lt;font face=&quot;Helvetica&quot;&gt;架构 ：x86_64&lt;/font&gt;&lt;/div&gt;&lt;div&gt;&lt;font face=&quot;Helvetica&quot;&gt;CPU ：48&lt;/font&gt;&lt;/div&gt;&lt;div&gt;&lt;font face=&quot;Helvetica&quot;&gt;型&lt;font style=&quot;font-size: 12px;&quot;&gt;号 ：&lt;span style=&quot;background-color: rgb(255, 255, 255); color: rgb(59, 59, 59); white-space: pre;&quot;&gt;Hygon C86 7360 24-core Processor&lt;/span&gt;&lt;/font&gt;&lt;/font&gt;&lt;/div&gt;" style="text;html=1;align=center;verticalAlign=middle;whiteSpace=wrap;rounded=0;" vertex="1" parent="1">
          <mxGeometry x="-80" y="300" width="280" height="70" as="geometry" />
        </mxCell>
        <mxCell id="CFXyaIXDHv0twLjoeO8D-7" value="&lt;font face=&quot;Helvetica&quot;&gt;ub20-01 虚拟机&lt;/font&gt;&lt;div&gt;&lt;font face=&quot;Helvetica&quot;&gt;vcpus：4&lt;/font&gt;&lt;/div&gt;&lt;div&gt;&lt;font face=&quot;Helvetica&quot;&gt;mem ：16G&lt;br&gt;&lt;/font&gt;&lt;div&gt;&lt;font face=&quot;Helvetica&quot;&gt;os-type：ubuntu20.04&lt;/font&gt;&lt;/div&gt;&lt;/div&gt;&lt;div&gt;&lt;font face=&quot;Helvetica&quot;&gt;disk-path：/dev/ubuntu-vg/ub20-01&lt;/font&gt;&lt;/div&gt;" style="rounded=0;whiteSpace=wrap;html=1;" vertex="1" parent="1">
          <mxGeometry x="184" y="350" width="230" height="100" as="geometry" />
        </mxCell>
        <mxCell id="CFXyaIXDHv0twLjoeO8D-8" value="......" style="text;html=1;align=center;verticalAlign=middle;whiteSpace=wrap;rounded=0;" vertex="1" parent="1">
          <mxGeometry x="230" y="460" width="150" height="30" as="geometry" />
        </mxCell>
        <mxCell id="CFXyaIXDHv0twLjoeO8D-9" value="&lt;span style=&quot;color: rgb(0, 0, 0); font-size: 12px; font-style: normal; font-variant-ligatures: normal; font-variant-caps: normal; font-weight: 400; letter-spacing: normal; orphans: 2; text-align: center; text-indent: 0px; text-transform: none; widows: 2; word-spacing: 0px; -webkit-text-stroke-width: 0px; white-space: normal; background-color: rgb(251, 251, 251); text-decoration-thickness: initial; text-decoration-style: initial; text-decoration-color: initial; float: none; display: inline !important;&quot;&gt;&lt;font face=&quot;Helvetica&quot;&gt;# virsh console ub20-00&lt;/font&gt;&lt;/span&gt;" style="text;whiteSpace=wrap;html=1;" vertex="1" parent="1">
          <mxGeometry x="60" y="260" width="150" height="40" as="geometry" />
        </mxCell>
      </root>
    </mxGraphModel>
  </diagram>
</mxfile>
